HIERARCHY
ROOT Hips
{
	OFFSET -0.001795 -0.223333 0.028219
	CHANNELS 6 Xposition Yposition Zposition Zrotation Yrotation Xrotation 
	JOINT LeftUpLeg
	{
		OFFSET 0.069520 -0.091406 -0.006815
		CHANNELS 3 Zrotation Yrotation Xrotation
		JOINT LeftLeg
		{
			OFFSET 0.034277 -0.375199 -0.004496
			CHANNELS 3 Zrotation Yrotation Xrotation
			JOINT LeftFoot
			{
				OFFSET -0.013596 -0.397961 -0.043693
				CHANNELS 3 Zrotation Yrotation Xrotation
				JOINT LeftToe
				{
					OFFSET 0.026358 -0.055791 0.119288
					CHANNELS 3 Zrotation Yrotation Xrotation
					End Site
					{
						OFFSET 0.000000 0.000000 0.000000
					}
				}
			}
		}
	}
	JOINT RightUpLeg
	{
		OFFSET -0.067670 -0.090522 -0.004320
		CHANNELS 3 Zrotation Yrotation Xrotation
		JOINT RightLeg
		{
			OFFSET -0.038290 -0.382569 -0.008850
			CHANNELS 3 Zrotation Yrotation Xrotation
			JOINT RightFoot
			{
				OFFSET 0.015774 -0.398415 -0.042312
				CHANNELS 3 Zrotation Yrotation Xrotation
				JOINT RightToe
				{
					OFFSET -0.025372 -0.048144 0.123348
					CHANNELS 3 Zrotation Yrotation Xrotation
					End Site
					{
						OFFSET 0.000000 0.000000 0.000000
					}
				}
			}
		}
	}
	JOINT Spine
	{
		OFFSET -0.002533 0.108963 -0.026696
		CHANNELS 3 Zrotation Yrotation Xrotation
		JOINT Spine1
		{
			OFFSET 0.005487 0.135180 0.001092
			CHANNELS 3 Zrotation Yrotation Xrotation
			JOINT Spine2
			{
				OFFSET 0.001457 0.052922 0.025425
				CHANNELS 3 Zrotation Yrotation Xrotation
				JOINT Neck
				{
					OFFSET -0.002778 0.213870 -0.042857
					CHANNELS 3 Zrotation Yrotation Xrotation
					JOINT Head
					{
						OFFSET 0.005152 0.064970 0.051349
						CHANNELS 3 Zrotation Yrotation Xrotation
						End Site
						{
							OFFSET 0.000000 0.000000 0.000000
						}
					}
				}
				JOINT LeftShoulder
				{
					OFFSET 0.078845 0.121749 -0.034090
					CHANNELS 3 Zrotation Yrotation Xrotation
					JOINT LeftArm
					{
						OFFSET 0.090977 0.030469 -0.008868
						CHANNELS 3 Zrotation Yrotation Xrotation
						JOINT LeftForeArm
						{
							OFFSET 0.259612 -0.012772 -0.027456
							CHANNELS 3 Zrotation Yrotation Xrotation
							JOINT LeftHand
							{
								OFFSET 0.249234 0.008986 -0.001171
								CHANNELS 3 Zrotation Yrotation Xrotation
								End Site
								{
									OFFSET 0.000000 0.000000 0.000000
								}
							}
						}
					}
				}
				JOINT RightShoulder
				{
					OFFSET -0.081759 0.118833 -0.038615
					CHANNELS 3 Zrotation Yrotation Xrotation
					JOINT RightArm
					{
						OFFSET -0.096012 0.032551 -0.009143
						CHANNELS 3 Zrotation Yrotation Xrotation
						JOINT RightForeArm
						{
							OFFSET -0.253742 -0.013329 -0.021401
							CHANNELS 3 Zrotation Yrotation Xrotation
							JOINT RightHand
							{
								OFFSET -0.255298 0.007772 -0.005559
								CHANNELS 3 Zrotation Yrotation Xrotation
								End Site
								{
									OFFSET 0.000000 0.000000 0.000000
								}
							}
						}
					}
				}
			}
		}
	}
}
MOTION
Frames: 17
Frame Time: 0.050000
0.086686 0.902839 0.169823 -2.375621 -3.104895 -2.423516 7.605107 -0.413909 -22.055795 -12.897256 4.298463 29.317378 10.700547 21.181511 11.617251 0.000000 0.000000 0.000000 -16.138167 0.561436 2.165023 5.111968 -0.226780 38.077792 -5.953532 -17.000496 20.002814 0.000000 0.000000 0.000000 5.854495 -1.187653 13.154127 -4.887410 1.721585 -24.772495 1.786337 6.821533 24.881499 12.227095 -7.874772 -12.821555 0.000000 0.000000 0.000000 -7.416392 -17.656112 6.416675 -26.572636 -30.934661 1.305444 124.329267 -44.918329 -72.164952 0.000000 0.000000 0.000000 11.175078 9.338574 4.512426 39.194710 40.201349 6.981116 -153.864807 56.560678 -118.460306 0.000000 0.000000 0.000000 
0.066111 0.897981 0.150585 -2.295766 -8.882886 -0.244337 11.003357 0.818935 -24.977328 -13.305526 5.696293 31.618421 8.347042 17.118273 9.198191 0.000000 0.000000 0.000000 -17.877497 1.504327 7.001821 3.399414 0.627797 26.480299 -1.452816 -11.469269 22.898985 0.000000 0.000000 0.000000 5.338631 -1.069916 13.066476 -6.283811 1.902368 -25.111969 2.944660 8.758378 25.637357 9.908544 -6.102131 -13.473984 0.000000 0.000000 0.000000 -7.749695 -16.955609 6.453852 -24.999017 -30.951095 1.004955 116.141246 -41.573261 -58.427093 0.000000 0.000000 0.000000 10.241643 12.042675 5.319599 37.886035 45.251762 8.415772 -150.441602 58.254212 -116.690589 0.000000 0.000000 0.000000 
0.042564 0.894653 0.125555 -1.565626 -12.915865 1.078947 12.531068 1.612915 -25.239567 -13.607000 5.928065 28.345516 9.968341 19.402021 10.111763 0.000000 0.000000 0.000000 -17.579251 2.077227 9.590818 3.057199 0.356430 16.787707 -1.592677 -11.666933 20.458214 0.000000 0.000000 0.000000 4.876544 -1.008086 13.767937 -7.110417 1.999013 -25.938585 2.020331 9.955006 25.491274 10.564410 -6.560617 -14.254689 0.000000 0.000000 0.000000 -7.562321 -18.263239 7.172274 -23.545988 -30.426541 0.745764 106.070156 -37.227693 -44.267797 0.000000 0.000000 0.000000 11.586013 12.417115 5.378522 37.755532 48.540500 9.498214 -149.655053 61.196613 -119.767436 0.000000 0.000000 0.000000 
0.017786 0.886667 0.096013 -1.675161 -17.844558 1.575199 15.573953 2.977110 -24.608140 -14.308331 6.444855 25.872165 11.808506 21.840502 10.899552 0.000000 0.000000 0.000000 -17.691949 2.546407 9.480299 3.322150 0.186577 12.357867 -0.171458 -8.456423 15.249517 0.000000 0.000000 0.000000 4.877267 -0.974714 14.996484 -7.830581 2.078457 -25.855563 1.210693 11.459559 25.844249 8.907232 -5.548478 -13.903507 0.000000 0.000000 0.000000 -7.847138 -18.343003 7.475596 -20.544969 -30.831268 0.375360 99.232048 -32.875590 -34.550586 0.000000 0.000000 0.000000 11.669460 12.606480 5.170382 37.814433 52.607922 10.901788 -145.059722 62.824746 -116.050249 0.000000 0.000000 0.000000 
-0.004403 0.879222 0.065834 -1.311351 -22.086709 0.904900 18.497028 4.150170 -22.660304 -15.717400 7.001243 23.132603 13.238879 23.440228 12.633918 0.000000 0.000000 0.000000 -17.967569 2.662106 6.852798 3.819279 0.296025 13.901087 0.519889 -4.443338 8.384353 0.000000 0.000000 0.000000 4.385129 -0.826903 16.256275 -7.266067 1.871130 -25.848519 -0.103009 11.334607 26.551188 7.752369 -4.811649 -15.559379 0.000000 0.000000 0.000000 -8.302583 -16.790838 7.287989 -21.219806 -31.211571 0.410945 97.469052 -32.375011 -31.689277 0.000000 0.000000 0.000000 10.089470 12.832095 4.734835 40.237162 57.591990 13.604507 -142.168257 65.706994 -116.440776 0.000000 0.000000 0.000000 
-0.022544 0.871963 0.039464 -0.846711 -25.022041 -0.243861 20.328501 4.943834 -21.281400 -15.866915 7.183039 22.166042 14.083285 24.127205 14.380378 0.000000 0.000000 0.000000 -18.122857 2.742313 5.399470 5.149508 0.369425 17.013588 -1.588239 -2.329691 -1.568841 0.000000 0.000000 0.000000 4.226893 -0.703469 18.214688 -8.481262 2.128633 -25.307439 -0.618337 9.419296 26.010878 5.220868 -3.548383 -14.661955 0.000000 0.000000 0.000000 -9.974734 -16.447957 7.922157 -19.614356 -30.606741 0.087723 98.101166 -28.989889 -27.322237 0.000000 0.000000 0.000000 11.344867 13.326555 4.386020 41.665263 59.877646 14.912679 -139.841377 69.123452 -118.725055 0.000000 0.000000 0.000000 
-0.036160 0.870477 0.019806 -0.622346 -25.621051 -1.242084 21.394328 5.279190 -20.554864 -15.527527 6.916492 21.507324 13.863648 23.310305 16.656715 0.000000 0.000000 0.000000 -17.664182 2.433152 3.297856 7.208129 0.253241 20.215695 -3.510865 -5.742042 -3.139660 0.000000 0.000000 0.000000 4.947053 -0.763148 19.403171 -9.626986 2.431566 -25.613441 -1.083606 7.659247 26.382700 4.928895 -3.622193 -15.011034 0.000000 0.000000 0.000000 -9.971297 -16.824131 8.375195 -19.149992 -30.703244 0.025372 99.926203 -25.009475 -23.141142 0.000000 0.000000 0.000000 12.821994 13.378744 4.013986 45.173363 57.815895 15.642010 -147.019185 69.497296 -129.297173 0.000000 0.000000 0.000000 
-0.044855 0.870122 0.008181 0.104310 -27.389697 -1.954713 22.007456 5.394110 -18.824261 -16.010064 6.841640 19.469752 14.490975 23.685815 18.601177 0.000000 0.000000 0.000000 -17.520733 2.362330 1.776624 7.945218 0.367357 22.196535 -5.295681 -8.478051 -5.217543 0.000000 0.000000 0.000000 5.336905 -0.753150 18.908374 -10.275251 2.580900 -25.340257 -1.764315 7.193965 25.918189 3.473580 -2.915249 -12.219122 0.000000 0.000000 0.000000 -9.742250 -15.974117 8.148170 -20.642602 -29.596304 0.065890 102.285052 -24.487908 -22.763842 0.000000 0.000000 0.000000 14.207729 13.540295 3.684299 50.134561 54.176150 16.319530 -159.842192 69.982548 -147.856248 0.000000 0.000000 0.000000 
-0.049331 0.871260 0.002881 0.356824 -28.160205 -2.690655 21.719773 5.248285 -17.960681 -15.007499 6.460616 19.227369 14.713398 23.693156 19.730341 0.000000 0.000000 0.000000 -17.536974 2.303808 0.803800 8.649455 0.411923 23.796892 -5.720065 -9.961812 -4.423969 0.000000 0.000000 0.000000 5.886026 -0.795402 18.513136 -10.240101 2.559389 -25.335995 -1.895388 6.485967 25.108266 2.861008 -2.625162 -11.219658 0.000000 0.000000 0.000000 -9.530690 -15.727513 8.114333 -21.889995 -27.365745 -0.070515 103.156355 -25.019405 -23.318530 0.000000 0.000000 0.000000 14.351908 13.545435 3.380600 53.666753 50.837465 16.190405 -166.769180 67.960800 -157.560418 0.000000 0.000000 0.000000 
-0.051929 0.870586 0.001352 1.786153 -29.342696 -4.239087 21.065772 4.923237 -16.436867 -15.420640 6.725936 18.840947 15.224330 24.172737 20.470250 0.000000 0.000000 0.000000 -19.201492 2.598985 0.046774 9.967409 0.339671 25.537896 -6.391401 -11.771180 -3.899420 0.000000 0.000000 0.000000 6.570158 -0.815303 17.489472 -11.567094 2.968316 -24.196178 -1.667577 5.542025 24.436866 1.265681 -1.572614 -9.644046 0.000000 0.000000 0.000000 -10.065479 -14.431926 7.876929 -24.317720 -25.264707 -0.236118 104.209075 -25.545138 -23.420335 0.000000 0.000000 0.000000 14.977623 13.409601 2.824582 55.238134 47.169448 14.956295 -175.800219 67.038737 -172.360997 0.000000 0.000000 0.000000 
-0.053064 0.870949 0.001455 2.033956 -30.333343 -4.329295 21.014329 4.893888 -15.701461 -15.444483 6.690665 18.134874 15.752156 24.701175 20.900712 0.000000 0.000000 0.000000 -19.997356 2.725944 -0.890775 10.924874 0.255329 26.219813 -6.171418 -11.612205 -3.225598 0.000000 0.000000 0.000000 7.396517 -0.868678 16.254311 -11.624214 3.005395 -23.412815 -1.753350 6.031001 24.187646 0.398015 -0.875620 -10.322060 0.000000 0.000000 0.000000 -9.659902 -13.727425 7.487125 -25.598280 -23.014421 -0.536791 103.859346 -26.180438 -23.754924 0.000000 0.000000 0.000000 15.688691 13.177561 2.538674 56.521031 45.156203 14.489263 179.017039 66.098799 179.376130 0.000000 0.000000 0.000000 
-0.053676 0.870678 0.001675 2.710414 -31.111449 -5.116364 20.297823 4.500844 -14.242250 -15.178556 6.396677 16.873724 16.396046 25.509587 20.931218 0.000000 0.000000 0.000000 -20.172421 2.779972 -1.095341 11.058595 0.359241 26.962019 -7.363794 -14.145898 -3.246132 0.000000 0.000000 0.000000 7.747350 -0.857725 15.662931 -12.149085 3.187526 -22.708719 -1.745885 6.128801 23.849179 -0.209869 -0.397757 -9.395858 0.000000 0.000000 0.000000 -10.162155 -12.364927 7.031102 -26.775551 -21.654158 -0.787203 101.101040 -26.148063 -22.212980 0.000000 0.000000 0.000000 17.038929 12.938341 2.135550 57.880314 44.018761 14.553388 171.853036 66.627864 167.885671 0.000000 0.000000 0.000000 
-0.053523 0.870522 0.001788 2.731520 -31.779447 -5.584329 19.944453 4.233274 -12.851373 -14.603598 5.956557 15.640725 16.947673 26.283365 20.706497 0.000000 0.000000 0.000000 -19.876274 2.767729 -0.963774 11.179968 0.467167 27.747137 -8.125188 -15.335289 -4.073843 0.000000 0.000000 0.000000 7.832504 -0.840955 15.646546 -12.466427 3.246708 -23.222341 -1.628274 5.723422 24.015039 -0.583348 -0.170700 -8.882263 0.000000 0.000000 0.000000 -9.659548 -11.047270 6.408040 -28.382598 -20.276950 -1.005142 97.213416 -25.000108 -18.843837 0.000000 0.000000 0.000000 17.442670 12.471860 1.634732 58.514505 43.376557 14.397395 166.219904 67.855386 159.135206 0.000000 0.000000 0.000000 
-0.053519 0.868691 0.001256 2.670189 -31.204438 -5.036254 20.488182 4.359438 -13.047793 -15.664491 6.098825 14.667116 16.751498 26.230100 20.050629 0.000000 0.000000 0.000000 -19.322424 2.516828 -2.160247 11.116695 0.549764 28.676921 -9.154364 -18.139561 -2.978936 0.000000 0.000000 0.000000 8.106437 -0.868732 14.239240 -12.340555 3.207206 -22.980530 -1.618093 5.597391 23.867999 -0.244708 -0.405755 -7.695107 0.000000 0.000000 0.000000 -8.559384 -10.868686 6.061292 -29.768132 -19.573213 -1.040513 92.876636 -25.338644 -17.415040 0.000000 0.000000 0.000000 16.782215 11.737657 1.397437 58.902982 43.681244 14.598193 166.393829 69.192706 159.966379 0.000000 0.000000 0.000000 
-0.053669 0.867142 0.000193 2.355265 -30.570236 -3.921265 21.165378 4.822588 -14.949660 -16.331123 6.543197 15.801788 16.309593 25.649536 19.902975 0.000000 0.000000 0.000000 -18.734953 2.375151 -2.420029 11.141013 0.513551 28.850233 -9.552130 -18.307850 -5.178964 0.000000 0.000000 0.000000 8.507864 -0.899442 13.074818 -12.510352 3.266016 -23.033097 -1.722637 5.373817 24.034359 -0.085494 -0.551346 -8.075153 0.000000 0.000000 0.000000 -8.847608 -10.625231 6.033578 -31.675917 -19.652125 -0.982201 90.984272 -26.410178 -17.505144 0.000000 0.000000 0.000000 16.761726 10.977904 1.049237 59.113195 44.227859 14.918153 163.494383 68.634644 155.677770 0.000000 0.000000 0.000000 
-0.054196 0.867638 -0.000929 2.364732 -29.834863 -3.573585 21.218794 5.100504 -16.741427 -16.297681 6.926234 17.788091 15.672359 24.677206 20.465546 0.000000 0.000000 0.000000 -18.392832 2.356088 -1.576708 11.234995 0.392146 28.527887 -9.865669 -18.281587 -7.350503 0.000000 0.000000 0.000000 8.668938 -0.898835 12.258337 -12.721431 3.345721 -23.010402 -1.649890 6.141234 24.293146 -0.142444 -0.408813 -8.766860 0.000000 0.000000 0.000000 -9.907230 -12.359643 6.946247 -31.468474 -20.022862 -0.962175 89.400091 -29.045809 -20.020685 0.000000 0.000000 0.000000 17.044404 10.464355 1.062870 58.259202 44.670117 14.920282 165.751831 68.833668 159.904200 0.000000 0.000000 0.000000 
-0.054463 0.869533 -0.001599 2.480122 -29.914545 -3.433956 20.532730 4.905454 -16.940292 -15.354537 6.519217 17.689115 15.857451 24.741930 21.094171 0.000000 0.000000 0.000000 -18.493381 2.405575 -1.351068 11.436074 0.261183 27.586321 -9.980761 -18.564074 -7.150403 0.000000 0.000000 0.000000 8.694124 -0.907610 12.401749 -12.781534 3.339368 -23.517651 -1.784531 6.808662 24.394222 -0.125192 -0.343044 -8.208119 0.000000 0.000000 0.000000 -10.447818 -12.403275 7.019180 -32.610714 -20.807148 -0.758256 88.401844 -31.240887 -21.735299 0.000000 0.000000 0.000000 16.916420 10.364038 1.201596 57.230677 44.864978 14.657919 164.770505 69.397016 159.105952 0.000000 0.000000 0.000000 
